HIERARCHY
ROOT Hips
{
	OFFSET 0.00000 0.00000 0.00000
	CHANNELS 6 Xposition Yposition Zposition Zrotation Yrotation Xrotation 
	JOINT LHipJoint
	{
		OFFSET 0 0 0
		CHANNELS 3 Zrotation Yrotation Xrotation
		JOINT LeftHip
		{
			OFFSET 1.37324 -1.83837 0.85674
			CHANNELS 3 Zrotation Yrotation Xrotation
			JOINT LeftKnee
			{
				OFFSET 2.53826 -6.97383 0.00000
				CHANNELS 3 Zrotation Yrotation Xrotation
				JOINT LeftAnkle
				{
					OFFSET 2.65296 -7.28895 0.00000
					CHANNELS 3 Zrotation Yrotation Xrotation
					JOINT LeftToe
					{
						OFFSET 0.22100 -0.60718 2.29776
						CHANNELS 3 Zrotation Yrotation Xrotation
						End Site
						{
							OFFSET 0.00000 -0.00000 1.19228
						}
					}
				}
			}
		}
	}
	JOINT RHipJoint
	{
		OFFSET 0 0 0
		CHANNELS 3 Zrotation Yrotation Xrotation
		JOINT RightHip
		{
			OFFSET -1.30156 -1.83836 0.85673
			CHANNELS 3 Zrotation Yrotation Xrotation
			JOINT RightKnee
			{
				OFFSET -2.63627 -7.24310 0.00000
				CHANNELS 3 Zrotation Yrotation Xrotation
				JOINT RightAnkle
				{
					OFFSET -2.62024 -7.19904 0.00000
					CHANNELS 3 Zrotation Yrotation Xrotation
					JOINT RightToe
					{
						OFFSET -0.20765 -0.57052 2.42402
						CHANNELS 3 Zrotation Yrotation Xrotation
						End Site
						{
							OFFSET -0.00000 -0.00000 1.24980
						}
					}
				}
			}
		}
	}
	JOINT lowerback
	{
		OFFSET 0 0 0
		CHANNELS 3 Zrotation Yrotation Xrotation
		JOINT Chest
		{
			OFFSET 0.05739 2.14162 -0.22815
			CHANNELS 3 Zrotation Yrotation Xrotation
			JOINT Chest2
			{
				OFFSET 0.02798 2.14167 0.08145
				CHANNELS 3 Zrotation Yrotation Xrotation
				JOINT lowerneck
				{
					OFFSET 0 0 0
					CHANNELS 3 Zrotation Yrotation Xrotation
					JOINT Neck
					{
						OFFSET -0.07019 1.58903 0.32980
						CHANNELS 3 Zrotation Yrotation Xrotation
						JOINT Head
						{
							OFFSET -0.03205 1.65283 -0.21190
							CHANNELS 3 Zrotation Yrotation Xrotation
							End Site
							{
								OFFSET -0.00726 1.66788 -0.10849
							}
						}
					}
				}
				JOINT LeftCollar
				{
					OFFSET 0 0 0
					CHANNELS 3 Zrotation Yrotation Xrotation
					JOINT LeftShoulder
					{
						OFFSET 3.92858 0.97533 -0.07938
CHANNELS 3 Zrotation Xrotation Yrotation
						JOINT LeftElbow
						{
OFFSET 0 -5.583450 -0.000000
CHANNELS 3 Zrotation Xrotation Yrotation
							JOINT LeftWrist
							{
OFFSET 0 -3.710870 0.000000
CHANNELS 3 Zrotation Xrotation Yrotation
								JOINT lhand
								{
									OFFSET 0 0 0
CHANNELS 3 Zrotation Xrotation Yrotation
									JOINT LFingers
									{
OFFSET 0 -0.562320 -0.000000
CHANNELS 3 Zrotation Xrotation Yrotation
										End Site
										{
OFFSET 0 -0.453360 -0.000000
										}
									}
								}
								JOINT LThumb
								{
OFFSET 0 0.000000 0.000000
CHANNELS 3 Zrotation Xrotation Yrotation
									End Site
									{
OFFSET 0 -0.460280 0.460280
									}
								}
							}
						}
					}
				}
				JOINT RightCollar
				{
					OFFSET 0 0 0
					CHANNELS 3 Zrotation Yrotation Xrotation
					JOINT RightShoulder
					{
						OFFSET -3.89897 1.08887 -0.22589
CHANNELS 3 Zrotation Xrotation Yrotation
						JOINT RightElbow
						{
OFFSET 0 -5.203570 -0.000000
CHANNELS 3 Zrotation Xrotation Yrotation
							JOINT RightWrist
							{
OFFSET 0 -3.649370 0.000000
CHANNELS 3 Zrotation Xrotation Yrotation
								JOINT rhand
								{
									OFFSET 0 0 0
CHANNELS 3 Zrotation Xrotation Yrotation
									JOINT RFingers
									{
OFFSET 0 -0.618000 -0.000000
CHANNELS 3 Zrotation Xrotation Yrotation
										End Site
										{
OFFSET 0 -0.498240 -0.000000
										}
									}
								}
								JOINT RThumb
								{
OFFSET 0 0.000000 0.000000
CHANNELS 3 Zrotation Xrotation Yrotation
									End Site
									{
OFFSET 0 -0.505850 0.505850
									}
								}
							}
						}
					}
				}
			}
		}
	}
}
MOTION
Frames: 9
Frame Time: 0.008333333333333333
0.730600 15.029600 -7.083300 -10.666300 6.847700 -21.217700 0.000000 0.000000 0.000000 -8.819400 -10.824200 -40.272500 11.900900 18.348400 65.674200 0.197500 -11.067900 -10.447500 0.683300 -5.285000 -14.723300 0.000000 0.000000 0.000000 26.987300 4.148700 -23.445200 -14.124200 -19.151300 72.583500 -1.243400 -2.590600 -22.140900 -0.434900 4.232000 -11.730200 6.270500 -0.039800 22.846900 4.553400 1.988100 3.263600 0.839800 0.829700 -9.132700 -4.044200 -3.643700 -20.485900 -1.428000 -3.392100 22.942900 -0.360800 -2.083400 10.849800 0.000000 0.000000 0.000000 10.142000 26.144100 -35.997700 121.294400 -55.955000 86.733700 25.536700 -11.962700 6.984100 0.000000 0.000000 0.000000 -7.125000 0.000000 0.000000 -0.908500 22.248400 -0.496900 0.000000 0.000000 0.000000 -13.608500 11.235400 30.514600 -79.886200 -59.609900 -51.252700 -34.719600 -4.053400 -1.220300 0.000000 0.000000 0.000000 7.125000 0.000000 -0.000000 -6.320000 28.473300 -2.556700
0.732400 15.049265 -6.926271 -10.707921 7.309527 -21.352151 0.000000 0.000000 0.000000 -9.096909 -11.368975 -39.655902 11.475459 18.147394 64.301087 0.142921 -11.425805 -9.956715 0.617498 -5.012792 -13.948396 0.000000 0.000000 0.000000 26.855172 3.488386 -23.253683 -14.358942 -19.216219 73.295415 -1.235678 -2.302588 -21.946732 -0.504891 4.533231 -12.585598 6.227341 -0.137407 22.727402 4.498559 1.833754 3.261800 0.849518 0.758630 -9.074162 -4.019921 -3.685158 -20.453866 -1.358304 -3.479858 22.867870 -0.351409 -2.111802 10.817570 0.000000 0.000000 0.000000 10.144945 26.364052 -35.766983 120.879822 -56.068739 86.389473 25.441121 -12.502469 7.124179 0.000000 0.000000 0.000000 -7.125000 0.000000 0.000000 -0.983268 22.100238 -0.541663 0.000000 0.000000 0.000000 -13.725446 10.976150 30.465485 -80.353786 -59.643668 -51.656251 -34.774277 -3.779851 -1.222950 0.000000 0.000000 0.000000 7.125000 0.000000 0.000000 -6.361981 28.468784 -2.574566
0.734199 15.068931 -6.769242 -10.749543 7.771354 -21.486603 0.000000 0.000000 0.000000 -9.374417 -11.913751 -39.039303 11.050018 17.946387 62.927975 0.088342 -11.783709 -9.465929 0.551695 -4.740585 -13.173493 0.000000 0.000000 0.000000 26.723044 2.828072 -23.062166 -14.593684 -19.281138 74.007330 -1.227956 -2.014576 -21.752565 -0.574881 4.834463 -13.440995 6.184181 -0.235015 22.607904 4.443719 1.679408 3.260001 0.859236 0.687559 -9.015624 -3.995642 -3.726616 -20.421832 -1.288608 -3.567617 22.792841 -0.342018 -2.140204 10.785339 0.000000 0.000000 0.000000 10.147890 26.584004 -35.536266 120.465245 -56.182478 86.045246 25.345543 -13.042238 7.264259 0.000000 0.000000 0.000000 -7.125000 0.000000 0.000000 -1.058036 21.952077 -0.586425 0.000000 0.000000 0.000000 -13.842391 10.716900 30.416371 -80.821372 -59.677437 -52.059801 -34.828954 -3.506302 -1.225601 0.000000 0.000000 0.000000 7.125000 0.000000 0.000000 -6.403963 28.464269 -2.592432
0.735999 15.088596 -6.612213 -10.791164 8.233181 -21.621054 0.000000 0.000000 0.000000 -9.651926 -12.458526 -38.422705 10.624577 17.745381 61.554862 0.033763 -12.141614 -8.975144 0.485893 -4.468377 -12.398589 0.000000 0.000000 0.000000 26.590915 2.167758 -22.870648 -14.828426 -19.346057 74.719246 -1.220233 -1.726564 -21.558397 -0.644872 5.135694 -14.296393 6.141022 -0.332622 22.488407 4.388878 1.525062 3.258201 0.868955 0.616489 -8.957085 -3.971363 -3.768073 -20.389798 -1.218912 -3.655375 22.717811 -0.332627 -2.168606 10.753109 0.000000 0.000000 0.000000 10.150835 26.803956 -35.305548 120.050667 -56.296217 85.701019 25.249964 -13.582007 7.404338 0.000000 0.000000 0.000000 -7.125000 0.000000 0.000000 -1.132804 21.803915 -0.631188 0.000000 0.000000 0.000000 -13.959337 10.457650 30.367256 -81.288958 -59.711205 -52.463352 -34.883631 -3.232752 -1.228251 0.000000 0.000000 0.000000 7.125000 0.000000 0.000000 -6.445944 28.459753 -2.610297
0.742956 15.101652 -6.462040 -10.714497 8.297799 -21.747568 0.000000 0.000000 0.000000 -9.855866 -12.722435 -37.804810 10.316961 17.577514 60.533435 -0.002069 -12.461221 -8.723870 0.457585 -4.335676 -12.023613 0.000000 0.000000 0.000000 26.408507 1.882139 -22.786888 -15.188807 -19.428611 75.800172 -1.166678 -1.518327 -20.996824 -0.810976 5.685239 -15.890988 6.115776 -0.314936 22.492726 4.314549 1.533912 3.274222 0.798341 0.620839 -8.939469 -3.922283 -3.790599 -20.403350 -1.192145 -3.710241 22.646117 -0.338648 -2.185457 10.729032 0.000000 0.000000 0.000000 10.224537 27.078852 -35.214245 119.816704 -56.357976 85.506243 25.249233 -14.314095 7.600875 0.000000 0.000000 0.000000 -7.125000 0.000000 0.000000 -1.140768 21.587591 -0.641205 0.000000 0.000000 0.000000 -14.096975 10.282128 30.366230 -81.984041 -59.751922 -53.063917 -34.897201 -3.157391 -1.279885 0.000000 0.000000 0.000000 7.125000 0.000000 0.000000 -6.451944 28.396896 -2.622419
0.750221 15.114316 -6.312275 -10.630796 8.338798 -21.873610 0.000000 0.000000 0.000000 -10.055433 -12.969643 -37.186837 10.016352 17.411618 59.532919 -0.036786 -12.778551 -8.486838 0.431506 -4.211270 -11.672417 0.000000 0.000000 0.000000 26.223108 1.618799 -22.709535 -15.556659 -19.512213 76.903041 -1.110398 -1.314834 -20.413405 -0.982795 6.249549 -17.529535 6.091595 -0.290395 22.504407 4.239061 1.552465 3.291302 0.722952 0.629674 -8.924287 -3.871729 -3.811998 -20.419612 -1.167932 -3.763151 22.574621 -0.345584 -2.201621 10.705440 0.000000 0.000000 0.000000 10.302446 27.357015 -35.131232 119.593480 -56.416646 85.320354 25.254141 -15.057619 7.800769 0.000000 0.000000 0.000000 -7.125000 0.000000 0.000000 -1.144760 21.367214 -0.649156 0.000000 0.000000 0.000000 -14.235844 10.111585 30.368062 -82.692652 -59.793053 -53.676196 -34.908326 -3.093814 -1.334431 0.000000 0.000000 0.000000 7.125000 0.000000 0.000000 -6.455806 28.330571 -2.634198
0.757485 15.126979 -6.162510 -10.547095 8.379798 -21.999652 0.000000 0.000000 0.000000 -10.255000 -13.216852 -36.568864 9.715742 17.245721 58.532403 -0.071503 -13.095881 -8.249806 0.405427 -4.086864 -11.321220 0.000000 0.000000 0.000000 26.037710 1.355459 -22.632182 -15.924511 -19.595816 78.005909 -1.054117 -1.111341 -19.829986 -1.154614 6.813859 -19.168081 6.067414 -0.265855 22.516089 4.163573 1.571018 3.308383 0.647562 0.638508 -8.909104 -3.821174 -3.833398 -20.435875 -1.143718 -3.816061 22.503125 -0.352521 -2.217786 10.681848 0.000000 0.000000 0.000000 10.380355 27.635178 -35.048218 119.370256 -56.475315 85.134465 25.259049 -15.801143 8.000663 0.000000 0.000000 0.000000 -7.125000 0.000000 0.000000 -1.148752 21.146836 -0.657108 0.000000 0.000000 0.000000 -14.374713 9.941043 30.369894 -83.401262 -59.834183 -54.288475 -34.919451 -3.030236 -1.388977 0.000000 0.000000 0.000000 7.125000 0.000000 0.000000 -6.459667 28.264245 -2.645978
0.767044 15.135982 -6.014517 -10.525732 8.364444 -22.122964 0.000000 0.000000 0.000000 -10.358358 -13.455172 -35.890180 9.448683 17.082439 57.621269 -0.109474 -13.381549 -7.962752 0.388876 -4.002719 -11.084503 0.000000 0.000000 0.000000 25.861375 1.211769 -22.730079 -16.307496 -19.662658 79.142851 -0.947612 -0.925538 -18.682824 -1.240334 7.055673 -19.883092 6.153443 -0.259643 22.536891 4.098252 1.594567 3.319654 0.519682 0.646152 -8.902084 -3.782501 -3.852358 -20.464831 -1.123861 -3.859618 22.450162 -0.358180 -2.231510 10.667639 0.000000 0.000000 0.000000 10.471714 27.925889 -35.045697 119.205680 -56.517630 84.997174 25.168853 -16.474922 8.173658 0.000000 0.000000 0.000000 -7.125000 0.000000 0.000000 -1.220746 20.963379 -0.703984 0.000000 0.000000 0.000000 -14.534990 9.791298 30.408938 -84.183220 -59.867151 -54.964864 -34.914542 -3.103245 -1.470974 0.000000 0.000000 0.000000 7.125000 0.000000 0.000000 -6.448742 28.165094 -2.656625
0.776893 15.144522 -5.866748 -10.512251 8.341964 -22.245930 0.000000 0.000000 0.000000 -10.449552 -13.692368 -35.203821 9.185866 16.919487 56.721436 -0.147856 -13.663213 -7.669374 0.373530 -3.923665 -10.862261 0.000000 0.000000 0.000000 25.686185 1.083207 -22.850133 -16.692396 -19.727380 80.284101 -0.834757 -0.741972 -17.464385 -1.315167 7.256713 -20.481334 6.253406 -0.255749 22.558847 4.034217 1.618748 3.330190 0.385165 0.653645 -8.896096 -3.745330 -3.871009 -20.495393 -1.104556 -3.901992 22.399542 -0.363677 -2.244926 10.654616 0.000000 0.000000 0.000000 10.564773 28.218188 -35.053354 119.048521 -56.557877 84.866027 25.066632 -17.139882 8.343252 0.000000 0.000000 0.000000 -7.125000 0.000000 0.000000 -1.301339 20.784591 -0.755781 0.000000 0.000000 0.000000 -14.697974 9.644184 30.452686 -84.974451 -59.899087 -55.649359 -34.907605 -3.193522 -1.556442 0.000000 0.000000 0.000000 7.125000 0.000000 0.000000 -6.435948 28.061793 -2.667128
